<?xml version="1.0" encoding="UTF-8" standalone="no"?>
<svg
   version="1.1"
   width="841.8898"
   height="595.2756"
   id="svg631"
   sodipodi:docname="Solar Car Teachers Resources_sheet1.svg"
   inkscape:version="1.2 (dc2aedaf03, 2022-05-15)"
   xmlns:inkscape="http://www.inkscape.org/namespaces/inkscape"
   xmlns:sodipodi="http://sodipodi.sourceforge.net/DTD/sodipodi-0.dtd"
   xmlns:xlink="http://www.w3.org/1999/xlink"
   xmlns="http://www.w3.org/2000/svg"
   xmlns:svg="http://www.w3.org/2000/svg">
  <sodipodi:namedview
     id="namedview633"
     pagecolor="#ffffff"
     bordercolor="#000000"
     borderopacity="0.25"
     inkscape:showpageshadow="2"
     inkscape:pageopacity="0.0"
     inkscape:pagecheckerboard="0"
     inkscape:deskcolor="#d1d1d1"
     showgrid="false"
     inkscape:zoom="1.0444742"
     inkscape:cx="376.74459"
     inkscape:cy="248.92908"
     inkscape:window-width="1920"
     inkscape:window-height="1009"
     inkscape:window-x="-8"
     inkscape:window-y="-8"
     inkscape:window-maximized="1"
     inkscape:current-layer="svg631"
     showguides="true" />
  <path
     d="  M32.8612,51.8397 L32.8612,260.4769 Q32.8612,289.2544 61.6387,289.2544 L380.8895,289.2544 Q409.6670,289.2544 409.6670,260.4769 L409.6670,51.8397 Q409.6670,23.0622 380.8895,23.0622 L61.6387,23.0622 Q32.8612,23.0622 32.8612,51.8397 Z"
     style="stroke-width: 7.9999; stroke: #e30016; stroke-dasharray: none; stroke-linecap: butt; stroke-linejoin: miter; fill: none; "
     id="path490" />
  <text
     x="136.90741"
     y="57.626945"
     id="text494"><tspan
       font-family="'Arial Black'"
       font-size="25.5px"
       fill="#1b1918"
       id="tspan492">Solar Power</tspan></text>
  <text
     x="500.07217"
     y="55.614166"
     id="text494-3"><tspan
       font-family="'Arial Black'"
       font-size="25.5px"
       fill="#1b1918"
       id="tspan492-0">Wheels &amp; speed</tspan></text>
  <text
     x="118.50458"
     y="339.81784"
     id="text494-5"><tspan
       font-family="'Arial Black'"
       font-size="25.5px"
       fill="#1b1918"
       id="tspan492-7">Friction &amp; Grip</tspan></text>
  <text
     x="462.20566"
     y="341.24036"
     id="text494-32"><tspan
       font-family="'Arial Black'"
       font-size="25.5px"
       fill="#1b1918"
       id="tspan492-4">Direction</tspan></text>
  <text
     x="680.62512"
     y="339.99509"
     id="text494-0"><tspan
       font-family="'Arial Black'"
       font-size="25.5px"
       fill="#1b1918"
       id="tspan492-1">Weight</tspan></text>
  <path
     d="  M140.5011,63.5569 L140.5011,297.4748 L407.6828,297.4748 L407.6828,63.5569 L140.5011,63.5569 Z"
     style="fill: none; "
     id="path496" />
  <path
     d="  M437.4261,52.1382 L437.4261,260.7754 Q437.4261,289.5529 466.2036,289.5529 L785.4544,289.5529 Q814.2319,289.5529 814.2319,260.7754 L814.2319,52.1382 Q814.2319,23.3607 785.4544,23.3607 L466.2036,23.3607 Q437.4261,23.3607 437.4261,52.1382 Z"
     style="stroke-width: 7.9999; stroke: #e30016; stroke-dasharray: none; stroke-linecap: butt; stroke-linejoin: miter; fill: none; "
     id="path498" />
  <path
     d="  M32.8612,338.0307 L32.8612,546.6678 Q32.8612,575.4453 61.6387,575.4453 L380.8895,575.4453 Q409.6670,575.4453 409.6670,546.6678 L409.6670,338.0307 Q409.6670,309.2531 380.8895,309.2531 L61.6387,309.2531 Q32.8612,309.2531 32.8612,338.0307 Z"
     style="stroke-width: 7.9999; stroke: #e30016; stroke-dasharray: none; stroke-linecap: butt; stroke-linejoin: miter; fill: none; "
     id="path500" />
  <path
     d="  M641.9835,328.1731 L641.9835,557.1224 Q641.9835,575.7438 660.6049,575.7438 L795.6104,575.7438 Q814.2319,575.7438 814.2319,557.1224 L814.2319,328.1731 Q814.2319,309.5516 795.6104,309.5516 L660.6049,309.5516 Q641.9835,309.5516 641.9835,328.1731 Z"
     style="stroke-width: 7.9999; stroke: #e30016; stroke-dasharray: none; stroke-linecap: butt; stroke-linejoin: miter; fill: none; "
     id="path504" />
  <path
     d="  M647.1244,346.0480 L647.1244,568.5851 L814.2318,568.5851 L814.2318,346.0480 L647.1244,346.0480 Z"
     style="fill: none; "
     id="path506" />
  <path
     d="  M440.2548,328.1731 L440.2548,557.1224 Q440.2548,575.7438 458.8762,575.7438 L593.8817,575.7438 Q612.5032,575.7438 612.5032,557.1224 L612.5032,328.1731 Q612.5032,309.5516 593.8817,309.5516 L458.8762,309.5516 Q440.2548,309.5516 440.2548,328.1731 Z"
     style="stroke-width: 7.9999; stroke: #e30016; stroke-dasharray: none; stroke-linecap: butt; stroke-linejoin: miter; fill: none; "
     id="path508" />
  <path
     d="m 450.76455,348.83266 v 113.0347 h 155.0001 v -113.0347 z"
     style="fill:none"
     id="path510" />
  <path
     d="m 478.1117,158.0472 a 15.9957,15.9957 0 0 1 15.9957,15.9958 15.9957,15.9957 0 1 1 -15.9957,-15.9958 z"
     style="fill:none;stroke:#1b1918;stroke-width:2.0001;stroke-linecap:butt;stroke-linejoin:miter;stroke-dasharray:none"
     id="path512" />
  <path
     d="m 478.1116,174.0429 v 15.9953"
     style="fill:none;stroke:#1b1918;stroke-width:2.0001;stroke-linecap:butt;stroke-linejoin:miter;stroke-dasharray:none"
     id="path514" />
  <path
     d="M 478.1115,190.0382 H 578.5641"
     style="fill:none;stroke:#1b1918;stroke-width:2.0001;stroke-linecap:butt;stroke-linejoin:miter;stroke-dasharray:none"
     id="path516" />
  <path
     d="M 578.5643,158.0472 A 15.9957,15.9957 0 0 1 594.56,174.043 15.9957,15.9957 0 1 1 578.5643,158.0472 Z"
     style="fill:none;stroke:#1b1918;stroke-width:2.0001;stroke-linecap:butt;stroke-linejoin:miter;stroke-dasharray:none"
     id="path518" />
  <path
     d="m 578.5641,174.0429 v 15.9953"
     style="fill:none;stroke:#1b1918;stroke-width:2.0001;stroke-linecap:butt;stroke-linejoin:miter;stroke-dasharray:none"
     id="path520" />
  <path
     d="m 459.2729,161.3782 a 22.7002,22.7002 0 0 1 41.5197,11.7296"
     style="fill:none;stroke:#1b1918;stroke-width:1.0001;stroke-linecap:butt;stroke-linejoin:miter;stroke-dasharray:none;marker-end:url(#marker2166)"
     id="path522" />
  <path
     d="m 485.475,208.9956 a 29.4909,29.4909 0 0 1 29.4909,29.4909 29.4909,29.4909 0 1 1 -29.4909,-29.4909 z"
     style="fill:none;stroke:#1b1918;stroke-width:2.0001;stroke-linecap:butt;stroke-linejoin:miter;stroke-dasharray:none"
     id="path524" />
  <path
     d="m 485.4748,238.4863 v 29.4901"
     style="fill:none;stroke:#1b1918;stroke-width:2.0001;stroke-linecap:butt;stroke-linejoin:miter;stroke-dasharray:none"
     id="path526" />
  <path
     d="M 485.4747,267.9764 H 670.6764"
     style="fill:none;stroke:#1b1918;stroke-width:2.0001;stroke-linecap:butt;stroke-linejoin:miter;stroke-dasharray:none"
     id="path528" />
  <path
     d="m 670.6766,208.9956 a 29.4909,29.4909 0 0 1 29.4909,29.4909 29.4909,29.4909 0 1 1 -29.4909,-29.4909 z"
     style="fill:none;stroke:#1b1918;stroke-width:2.0001;stroke-linecap:butt;stroke-linejoin:miter;stroke-dasharray:none"
     id="path530" />
  <path
     d="m 670.6764,238.4863 v 29.4901"
     style="fill:none;stroke:#1b1918;stroke-width:2.0001;stroke-linecap:butt;stroke-linejoin:miter;stroke-dasharray:none"
     id="path532" />
  <path
     d="m 450.7424,215.1368 a 41.8517,41.8517 0 0 1 76.5489,21.6256"
     style="fill:none;stroke:#1b1918;stroke-width:1.0001;stroke-linecap:butt;stroke-linejoin:miter;stroke-dasharray:none;marker-end:url(#marker2166)"
     id="path534" />
  <path
     d="  M455.6358,59.1393 L791.8722,59.1393 L791.8722,270.6477 L704.1220,270.6477 L704.1220,157.8869 L455.6358,157.8869 L455.6358,59.1393 Z"
     style="fill: none; "
     id="path537" />
  <defs
     id="defs547">
    <rect
       x="373.3936"
       y="-267.12004"
       width="139.78325"
       height="174.25035"
       id="rect7112" />
    <rect
       x="20.105809"
       y="-344.67102"
       width="379.13812"
       height="161.8039"
       id="rect7082" />
    <rect
       x="455.6358"
       y="81.380657"
       width="336.2364"
       height="63.189687"
       id="rect7052" />
    <rect
       x="-790.73345"
       y="-27.079913"
       width="340.41724"
       height="285.79492"
       id="rect3175" />
    <marker
       style="overflow:visible"
       id="marker2166"
       refX="0"
       refY="0"
       orient="auto-start-reverse"
       inkscape:stockid="Arrow1"
       markerWidth="4.0606599"
       markerHeight="6.7071061"
       viewBox="0 0 4.0606602 6.7071068"
       inkscape:isstock="true"
       inkscape:collect="always"
       preserveAspectRatio="xMidYMid">
      <path
         style="fill:none;stroke:context-stroke;stroke-width:1;stroke-linecap:butt"
         d="M 3,-3 0,0 3,3"
         id="path2164"
         transform="rotate(180,0.125,0)"
         sodipodi:nodetypes="ccc" />
    </marker>
    <marker
       style="overflow:visible"
       id="Arrow1"
       refX="0"
       refY="0"
       orient="auto-start-reverse"
       inkscape:stockid="Arrow1"
       markerWidth="4.0606604"
       markerHeight="6.7071066"
       viewBox="0 0 4.0606602 6.7071068"
       inkscape:isstock="true"
       inkscape:collect="always"
       preserveAspectRatio="xMidYMid">
      <path
         style="fill:none;stroke:context-stroke;stroke-width:1;stroke-linecap:butt"
         d="M 3,-3 0,0 3,3"
         id="path5057"
         transform="rotate(180,0.125,0)"
         sodipodi:nodetypes="ccc" />
    </marker>
    <linearGradient
       id="grad1">
      <stop
         offset="0.0000%"
         stop-color="#ffec00"
         stop-opacity="1.0000"
         id="stop539" />
      <stop
         offset="49.0000%"
         stop-color="#ffec00"
         stop-opacity="1.0000"
         id="stop541" />
      <stop
         offset="100.0000%"
         stop-color="#ffffff"
         stop-opacity="1.0000"
         id="stop543" />
    </linearGradient>
    <linearGradient
       xlink:href="#grad1"
       id="grad2"
       x1="0"
       y1="0"
       x2="0"
       y2="1"
       gradientTransform="rotate(358 .5 .5)"
       gradientUnits="objectBoundingBox" />
  </defs>
  <g
     id="g4049">
    <path
       d="  M124.2872,247.6400 A73.2354,196.5512 0.0000 0,1 62.8023,248.0538 L93.3780,69.4522 L124.2872,247.6400 Z"
       style="fill:url(#grad2)"
       id="path549" />
    <path
       d="  M68.5188,84.1494 C68.5188,89.1041 79.6484,93.1207 93.3778,93.1207 C107.1071,93.1207 118.2368,89.1041 118.2368,84.1494 L105.5044,69.4522 L81.2517,69.4522 L68.5188,84.1494 Z"
       style="stroke-width:1.0001;stroke:#1b1918;stroke-dasharray:none;stroke-linecap:butt;stroke-linejoin:miter;fill-rule:evenodd;fill:#b1b3b4"
       id="path551" />
    <path
       d="  M59.4241,150.8023 L59.4241,156.8656 L124.3006,156.8656 L124.3006,150.8023 L59.4241,150.8023 Z"
       style="stroke-width:1.0001;stroke:#1b1918;stroke-dasharray:none;stroke-linecap:butt;stroke-linejoin:miter;fill-rule:evenodd;fill:#102a83"
       id="path553" />
    <path
       d="  M62.1524,246.6011 L62.1524,252.6644 L127.0290,252.6644 L127.0290,246.6011 L62.1524,246.6011 Z"
       style="stroke-width:1.0001;stroke:#1b1918;stroke-dasharray:none;stroke-linecap:butt;stroke-linejoin:miter;fill-rule:evenodd;fill:#102a83"
       id="path555" />
    <path
       d="  M73.3694,144.1327 L73.3694,95.0207"
       style="stroke-width:2.0001;stroke:#1b1918;stroke-dasharray:none;stroke-linecap:butt;stroke-linejoin:miter;fill:none;marker-start:url(#marker2166);marker-end:url(#marker2166)"
       id="path557" />
    <path
       d="  M51.5418,241.1442 L51.5418,94.1114"
       style="stroke-width:2;stroke:#1b1918;stroke-dasharray:none;stroke-linecap:butt;stroke-linejoin:miter;fill:none;marker-start:url(#Arrow1);marker-end:url(#marker2166)"
       id="path559" />
  </g>
  <g
     id="g9470">
    <g
       id="Layer1001">
      <path
         d="  M217.3433,560.4123 L213.5574,552.9140 L326.8005,495.7390 L330.5863,503.2374 L217.3433,560.4123 Z"
         style="stroke-width: 1.0001; stroke: #1b1918; stroke-dasharray: none; stroke-linecap: butt; stroke-linejoin: miter; fill: none; "
         id="path561" />
      <path
         d="  M211.5147,541.8735 L268.5365,519.6893"
         style="stroke-width: 2.0001; stroke: #1b1918; stroke-dasharray: none; stroke-linecap: butt; stroke-linejoin: miter; fill: none; "
         id="path563" />
      <path
         d="  M218.5620,528.8793 A9.6000,9.6000 0.0000 0,1 231.4583,533.1222 A9.6000,9.6000 0.0000 1,1 218.5620,528.8793 Z"
         style="stroke-width: 1.0001; stroke: #1b1918; stroke-dasharray: none; stroke-linecap: butt; stroke-linejoin: miter; fill-rule: evenodd; fill: #ffffff; "
         id="path565" />
      <path
         d="  M263.5418,516.1261 A5.1560,5.1560 0.0000 0,1 270.4682,518.4050 A5.1560,5.1560 0.0000 1,1 263.5418,516.1261 Z"
         style="stroke-width: 1.0001; stroke: #1b1918; stroke-dasharray: none; stroke-linecap: butt; stroke-linejoin: miter; fill-rule: evenodd; fill: #ffffff; "
         id="path567" />
    </g>
    <path
       d="  M217.3433,560.4123 L319.6896,560.4761"
       style="stroke-width: 1.0001; stroke: #1b1918; stroke-dasharray: none; stroke-linecap: butt; stroke-linejoin: miter; fill: none; "
       id="path570" />
    <path
       d="m 256.7645,560.4367 a 39.4213,39.4213 0 0 0 -4.2308,-17.7915 l -35.1904,17.7671 z"
       style="fill:none;stroke:#1b1918;stroke-width:1.0001;stroke-linecap:butt;stroke-linejoin:miter;stroke-dasharray:none"
       id="path572" />
  </g>
  <path
     d="m 602.81525,528.97076 v -81.9768 h -99.9632 v 81.9768 z"
     style="fill:none"
     id="path607" />
  <text
     xml:space="preserve"
     id="text3173"
     style="font-weight:bold;font-size:15.134px;line-height:1.05;font-family:sans-serif;-inkscape-font-specification:'sans-serif Bold';text-align:center;white-space:pre;shape-inside:url(#rect3175);display:inline;fill:none;stroke:#000000;stroke-width:2.52234;stroke-dasharray:none"
     x="-170.91992"
     y="0"
     transform="matrix(0.79291474,0,0,0.79291474,764.74516,88.33586)"><tspan
       x="-790.73438"
       y="-14.823428"
       id="tspan9765"><tspan
         style="font-weight:normal;font-family:Arial;-inkscape-font-specification:Arial;text-align:start;fill:#000000;stroke:none"
         id="tspan9763">These cars use solar panels to convert light into
</tspan></tspan><tspan
       x="-790.73438"
       y="1.2053047"
       id="tspan9769"><tspan
         style="font-weight:normal;font-family:Arial;-inkscape-font-specification:Arial;text-align:start;fill:#000000;stroke:none"
         id="tspan9767">electricity. The electricity is then converted into
</tspan></tspan><tspan
       x="-790.73438"
       y="17.234037"
       id="tspan9773"><tspan
         style="font-weight:normal;font-family:Arial;-inkscape-font-specification:Arial;text-align:start;fill:#000000;stroke:none"
         id="tspan9771">mechanical motion through the motor.
</tspan></tspan><tspan
       x="-790.73438"
       y="33.262769"
       id="tspan9777"><tspan
         style="font-weight:normal;font-family:Arial;-inkscape-font-specification:Arial;text-align:start;fill:#000000;stroke:none"
         id="tspan9775">You can test this using a bright light. Hold
</tspan></tspan><tspan
       x="-790.73438"
       y="49.291502"
       id="tspan9781"><tspan
         style="font-weight:normal;font-family:Arial;-inkscape-font-specification:Arial;text-align:start;fill:#000000;stroke:none"
         id="tspan9779">the light far away from the solar panels and see
</tspan></tspan><tspan
       x="-790.73438"
       y="65.320234"
       id="tspan9785"><tspan
         style="font-weight:normal;font-family:Arial;-inkscape-font-specification:Arial;text-align:start;fill:#000000;stroke:none"
         id="tspan9783">how fast the motor spins (if at all).
</tspan></tspan><tspan
       x="-790.73438"
       y="81.348966"
       id="tspan9789"><tspan
         style="font-weight:normal;font-family:Arial;-inkscape-font-specification:Arial;text-align:start;fill:#000000;stroke:none"
         id="tspan9787">Gradually move the light closer to the solar
</tspan></tspan><tspan
       x="-790.73438"
       y="97.377698"
       id="tspan9793"><tspan
         style="font-weight:normal;font-family:Arial;-inkscape-font-specification:Arial;text-align:start;fill:#000000;stroke:none"
         id="tspan9791">panels and watch the motor. It should start to
</tspan></tspan><tspan
       x="-790.73438"
       y="113.40643"
       id="tspan9797"><tspan
         style="font-weight:normal;font-family:Arial;-inkscape-font-specification:Arial;text-align:start;fill:#000000;stroke:none"
         id="tspan9795">spin and then get quicker as the light is moved
</tspan></tspan><tspan
       x="-790.73438"
       y="129.43516"
       id="tspan9801"><tspan
         style="font-weight:normal;font-family:Arial;-inkscape-font-specification:Arial;text-align:start;fill:#000000;stroke:none"
         id="tspan9799">closer. This can also be tested outdoors,
</tspan></tspan><tspan
       x="-790.73438"
       y="145.4639"
       id="tspan9805"><tspan
         style="font-weight:normal;font-family:Arial;-inkscape-font-specification:Arial;text-align:start;fill:#000000;stroke:none"
         id="tspan9803">using your hands to shade the panels and then
</tspan></tspan><tspan
       x="-790.73438"
       y="161.49263"
       id="tspan9809"><tspan
         style="font-weight:normal;font-family:Arial;-inkscape-font-specification:Arial;text-align:start;fill:#000000;stroke:none"
         id="tspan9807">gradually letting through more light.
</tspan></tspan><tspan
       x="-790.73438"
       y="177.52136"
       id="tspan9813"><tspan
         style="font-weight:normal;font-family:Arial;-inkscape-font-specification:Arial;text-align:start;fill:#000000;stroke:none"
         id="tspan9811">
</tspan></tspan><tspan
       x="-790.73438"
       y="193.55009"
       id="tspan9817"><tspan
         style="font-weight:normal;font-family:Arial;-inkscape-font-specification:Arial;text-align:start;fill:#000000;stroke:none"
         id="tspan9815">These cars use two solar panels. More area to
</tspan></tspan><tspan
       x="-790.73438"
       y="209.57882"
       id="tspan9821"><tspan
         style="font-weight:normal;font-family:Arial;-inkscape-font-specification:Arial;text-align:start;fill:#000000;stroke:none"
         id="tspan9819">catch the light means more power available. You
</tspan></tspan><tspan
       x="-790.73438"
       y="225.60756"
       id="tspan9825"><tspan
         style="font-weight:normal;font-family:Arial;-inkscape-font-specification:Arial;text-align:start;fill:#000000;stroke:none"
         id="tspan9823">can test this by covering on of the solar panels.</tspan></tspan></text>
  <text
     xml:space="preserve"
     style="font-style:normal;font-variant:normal;font-weight:normal;font-stretch:normal;font-size:12px;line-height:1.05;font-family:Arial;-inkscape-font-specification:Arial;text-align:start;white-space:pre;shape-inside:url(#rect6089);display:inline;fill:#000000;stroke:none;stroke-width:2;stroke-dasharray:none"
     x="615.29822"
     y="-303.79749"
     id="text5039"><tspan
       x="450"
       y="75.19499"
       id="tspan9827">There are a two different sized back wheels - large and small.
</tspan><tspan
       x="450"
       y="87.794989"
       id="tspan9829">These will affect the speed of the car.
</tspan><tspan
       x="450"
       y="100.39499"
       id="tspan9831">Larger wheels go further for each rotation, so a car with
</tspan><tspan
       x="450"
       y="112.99499"
       id="tspan9833">larger wheels should go faster.
</tspan><tspan
       x="450"
       y="125.59498"
       id="tspan9835">This can be tested by rolling each wheel one revolution along
</tspan><tspan
       x="450"
       y="138.19499"
       id="tspan9837">the ground and marking how far they have gone.
</tspan><tspan
       x="722.13086"
       y="150.795"
       id="tspan9839">
</tspan><tspan
       x="722.13086"
       y="163.395"
       id="tspan9841">This only
</tspan><tspan
       x="722.13086"
       y="175.99501"
       id="tspan9843">matters for the
</tspan><tspan
       x="722.13086"
       y="188.59501"
       id="tspan9845">motorised
</tspan><tspan
       x="722.13086"
       y="201.19502"
       id="tspan9847">wheels - the
</tspan><tspan
       x="722.13086"
       y="213.79503"
       id="tspan9849">other wheels
</tspan><tspan
       x="722.13086"
       y="226.39503"
       id="tspan9851">do not affect
</tspan><tspan
       x="722.13086"
       y="238.99504"
       id="tspan9853">the speed.</tspan></text>
  <path
     id="rect6089"
     style="font-variation-settings:normal;opacity:1;vector-effect:non-scaling-stroke;fill:none;fill-opacity:1;fill-rule:evenodd;stroke:none;stroke-width:0.999998;stroke-linecap:butt;stroke-linejoin:miter;stroke-miterlimit:4;stroke-dasharray:none;stroke-dashoffset:0;stroke-opacity:1;-inkscape-stroke:hairline;stop-color:#000000;stop-opacity:1"
     d="m 450.00047,65.585615 v 79.753915 h 272.13098 v 104.25586 h 79.5536 v -78.25586 h 0.54678 V 65.585615 Z"
     sodipodi:nodetypes="ccccccccc" />
  <text
     xml:space="preserve"
     id="text7050"
     style="font-style:normal;font-variant:normal;font-weight:normal;font-stretch:normal;font-size:12px;line-height:1.05;font-family:Arial;-inkscape-font-specification:Arial;text-align:start;white-space:pre;shape-inside:url(#rect7052);display:inline;fill:#000000;stroke:none;stroke-width:2;stroke-dasharray:none" />
  <path
     id="rect11789"
     style="font-variation-settings:normal;opacity:1;vector-effect:non-scaling-stroke;fill:none;fill-opacity:1;fill-rule:evenodd;stroke:none;stroke-width:0.999999;stroke-linecap:butt;stroke-linejoin:miter;stroke-miterlimit:4;stroke-dasharray:none;stroke-dashoffset:0;stroke-opacity:1;-inkscape-stroke:hairline;stop-color:#000000;stop-opacity:1"
     d="m 54.250475,344.14119 v 124.98633 90.6875 h 83.376955 l 150.07656,-74.5064 103.20334,0.24795 0.7201,-141.41538 z"
     sodipodi:nodetypes="cccccccc" />
  <path
     id="rect11789-1-6"
     style="font-variation-settings:normal;fill:none;fill-opacity:1;fill-rule:evenodd;stroke:none;stroke-width:0.999995;stroke-linecap:butt;stroke-linejoin:miter;stroke-miterlimit:4;stroke-dasharray:none;stroke-dashoffset:0;stroke-opacity:1;stop-color:#000000"
     d="m 451.26367,353.33237 v 97.16211 h 75.52539 v 71.28711 h 75.52539 v -71.28711 -97.16211 h -75.52539 z" />
  <rect
     style="font-variation-settings:normal;fill:none;fill-opacity:1;fill-rule:evenodd;stroke:none;stroke-width:0.999995;stroke-linecap:butt;stroke-linejoin:miter;stroke-miterlimit:4;stroke-dasharray:none;stroke-dashoffset:0;stroke-opacity:1;stop-color:#000000"
     id="rect11789-1-6-8"
     width="156.02113"
     height="213.69087"
     x="653.52222"
     y="364.89423"
     ry="0" />
  <text
     xml:space="preserve"
     style="font-style:normal;font-variant:normal;font-weight:normal;font-stretch:normal;font-size:12px;line-height:1.05;font-family:Arial;-inkscape-font-specification:Arial;text-align:start;white-space:pre;shape-inside:url(#rect11789);shape-padding:2.70799;display:inline;fill:#000000;stroke:none;stroke-width:2;stroke-dasharray:none"
     x="120.63486"
     y="381.05295"
     id="text12142"
     transform="translate(1.1244507,-5.2717115)"><tspan
       x="56.958984"
       y="356.45866"
       id="tspan9855">
</tspan><tspan
       x="56.958984"
       y="369.05867"
       id="tspan9857">A wheel with better grip will ensure the power is transferred to
</tspan><tspan
       x="56.958984"
       y="381.65867"
       id="tspan9859">moving forwards. The grip of a wheel depends upon the </tspan><tspan
       x="56.958984"
       y="394.25868"
       id="tspan9861">surface of the road it is on and the surface of the wheel.
</tspan><tspan
       x="56.958984"
       y="406.85869"
       id="tspan9863"> 
</tspan><tspan
       x="56.958984"
       y="419.45869"
       id="tspan9865">You can test this by making the cars go up-hill on different </tspan><tspan
       x="56.958984"
       y="432.0587"
       id="tspan9867">surfaces. Surfaces with better grip will be able to go up a </tspan><tspan
       x="56.958984"
       y="444.6587"
       id="tspan9869">higher gradient. Try different surfaces from paper sheets to </tspan><tspan
       x="56.958984"
       y="457.25871"
       id="tspan9871">wooden table to sheets of sandpaper.
</tspan><tspan
       x="56.958984"
       y="469.85872"
       id="tspan9873">Better grip means the car can drive up a steeper angle of hill.
</tspan><tspan
       x="56.958984"
       y="482.45872"
       id="tspan9875">
</tspan><tspan
       x="56.958984"
       y="495.05873"
       id="tspan9877">This is one reason why wheels have </tspan><tspan
       x="56.958984"
       y="507.65874"
       id="tspan9879">rubber tyres, to ensure that the </tspan><tspan
       x="56.958984"
       y="520.25874"
       id="tspan9881">wheel has a good grip to
</tspan><tspan
       x="56.958984"
       y="532.85875"
       id="tspan9883">the road surface.</tspan></text>
  <text
     xml:space="preserve"
     style="font-style:normal;font-variant:normal;font-weight:normal;font-stretch:normal;font-size:12px;line-height:1.05;font-family:Arial;-inkscape-font-specification:Arial;text-align:start;white-space:pre;shape-inside:url(#rect11789-1-6);shape-padding:1.354;display:inline;fill:#000000;stroke:none;stroke-width:2;stroke-dasharray:none"
     x="450.37198"
     y="399.48248"
     id="text12142-0"
     transform="translate(-0.78037188,-7.372434)"><tspan
       x="452.61719"
       y="364.2946"
       id="tspan9885">The direction of the motor
</tspan><tspan
       x="452.61719"
       y="376.89461"
       id="tspan9887">depends upon how it is
</tspan><tspan
       x="452.61719"
       y="389.49461"
       id="tspan9889">connected to the solar </tspan><tspan
       x="452.61719"
       y="402.09462"
       id="tspan9891">panels.
</tspan><tspan
       x="452.61719"
       y="414.69462"
       id="tspan9893">Test this by swapping the
</tspan><tspan
       x="452.61719"
       y="427.29463"
       id="tspan9895">crocodile clips around
</tspan><tspan
       x="452.61719"
       y="439.89464"
       id="tspan9897">and seeing which direction
</tspan><tspan
       x="528.14258"
       y="452.49464"
       id="tspan9899">the wheels </tspan><tspan
       x="528.14258"
       y="465.09465"
       id="tspan9901">spin. Also </tspan><tspan
       x="528.14258"
       y="477.69465"
       id="tspan9903">check which </tspan><tspan
       x="528.14258"
       y="490.29466"
       id="tspan9905">direction the </tspan><tspan
       x="528.14258"
       y="502.89467"
       id="tspan9907">car moves.</tspan></text>
  <text
     xml:space="preserve"
     style="font-style:normal;font-variant:normal;font-weight:normal;font-stretch:normal;font-size:12px;line-height:1.05;font-family:Arial;-inkscape-font-specification:Arial;text-align:start;white-space:pre;shape-inside:url(#rect11789-1-6-8);display:inline;fill:#000000;stroke:none;stroke-width:1.97559;stroke-dasharray:none"
     x="672.37042"
     y="445.82349"
     id="text12142-8"
     transform="matrix(1,0,0,1.0248626,0,-13.706456)"><tspan
       x="653.52148"
       y="374.50358"
       id="tspan9909">The weight of the car affects
</tspan><tspan
       x="653.52148"
       y="387.10359"
       id="tspan9911">how fast it will go.
</tspan><tspan
       x="653.52148"
       y="399.7036"
       id="tspan9913">It will affect the acceleration
</tspan><tspan
       x="653.52148"
       y="412.3036"
       id="tspan9915">of the car, hence it will take
</tspan><tspan
       x="653.52148"
       y="424.90361"
       id="tspan9917">longer to get up to the same
</tspan><tspan
       x="653.52148"
       y="437.50361"
       id="tspan9919">speed.
</tspan><tspan
       x="653.52148"
       y="450.10362"
       id="tspan9921">
</tspan><tspan
       x="653.52148"
       y="462.70363"
       id="tspan9923">This can be tested by adding
</tspan><tspan
       x="653.52148"
       y="475.30363"
       id="tspan9925">weights to the top of the car
</tspan><tspan
       x="653.52148"
       y="487.90364"
       id="tspan9927">(being careful not to block </tspan><tspan
       x="653.52148"
       y="500.50365"
       id="tspan9929">the solar panels) and then </tspan><tspan
       x="653.52148"
       y="513.10365"
       id="tspan9931">timing how long it takes to go </tspan><tspan
       x="653.52148"
       y="525.70366"
       id="tspan9933">a measured distance.
</tspan><tspan
       x="653.52148"
       y="538.30363"
       id="tspan9935">Try again with different
</tspan><tspan
       x="653.52148"
       y="550.90361"
       id="tspan9937">weights.</tspan></text>
  <g
     id="g1429"
     transform="matrix(0.9541056,0,0,0.9541056,15.723898,17.154211)"
     style="stroke-width:1.0481">
    <g
       id="g1363"
       transform="matrix(1.2132731,0,0,1.2132731,-97.357081,-103.67966)"
       style="stroke-width:0.863864">
      <path
         style="color:#000000;fill:#1b1918;stroke-width:0.863864"
         d="m 496.01348,553.39844 c 1.2506,0 2.2832,-1.0326 2.2832,-2.2832 l 0.002,-100.20703 h 0.002 c 0,-1.25061 -1.03251,-2.28321 -2.28321,-2.28321 h -15.77929 v 1 h -1 v 24.73047 c 0,0.1598 -0.12164,0.28125 -0.28125,0.28125 h -3.12305 c -0.1598,0 -0.28125,-0.12145 -0.28125,-0.28125 V 449.625 h -1.00195 v -1 h -15.7793 c -1.2507,0 -2.28125,1.0326 -2.28125,2.28321 l 0.004,100.20703 c -10e-6,1.2506 1.03064,2.2832 2.28125,2.2832 z m 0,-2 H 458.7752 c -0.1598,0 -0.28126,-0.12341 -0.28125,-0.2832 l -0.004,-100.20703 c 0,-0.1598 0.12155,-0.28321 0.28125,-0.28321 h 14.78125 v 23.73047 c 0,1.2506 1.03065,2.28125 2.28125,2.28125 h 3.12305 c 1.25058,0 2.28125,-1.03065 2.28125,-2.28125 V 450.625 h 14.77929 c 0.15915,0 0.28041,0.12422 0.28125,0.28321 l -0.002,100.20703 c 0,0.15979 -0.12341,0.2832 -0.2832,0.2832 z"
         id="path574" />
      <path
         d="m 492.63332,541.07534 v -22.9031 q 0,-2.1512 -2.1512,-2.1512 h -26.1768 q -2.1512,0 -2.1512,2.1512 v 22.9031 q 0,2.1513 2.1512,2.1513 h 26.1768 q 2.1512,0 2.1512,-2.1513 z"
         style="fill:#776ead;fill-rule:evenodd;stroke:#1b1918;stroke-width:1.72782;stroke-linecap:butt;stroke-linejoin:miter;stroke-dasharray:none"
         id="path576" />
      <path
         d="m 492.63432,508.46334 v -22.9031 q 0,-2.1512 -2.1512,-2.1512 h -26.1768 q -2.1512,0 -2.1512,2.1512 v 22.9031 q 0,2.1513 2.1512,2.1513 h 26.1768 q 2.1512,0 2.1512,-2.1513 z"
         style="fill:#776ead;fill-rule:evenodd;stroke:#1b1918;stroke-width:1.72782;stroke-linecap:butt;stroke-linejoin:miter;stroke-dasharray:none"
         id="path578" />
    </g>
    <circle
       style="fill:#999999;stroke:#000000;stroke-width:1.1884;stroke-dasharray:none"
       id="path767"
       cx="472.91058"
       cy="560.53772"
       r="2.7795277" />
    <circle
       style="fill:#999999;stroke:#000000;stroke-width:1.1884;stroke-dasharray:none"
       id="path767-4"
       cx="491.60349"
       cy="560.53772"
       r="2.7795277" />
  </g>
  <path
     d="m 539.44425,536.515 c 2.4582,14.96244 -7.36531,21.44516 -19.01918,23.92063 -8.56085,1.81847 -22.40303,2.1558 -26.40539,-1.42595"
     style="fill:none;stroke:#00aa00;stroke-width:1.5001;stroke-linecap:butt;stroke-linejoin:miter;stroke-dasharray:none"
     id="path581"
     sodipodi:nodetypes="csc" />
  <path
     d="m 493.32626,560.10398 1.38684,-2.1886 -4.01228,-2.54245 -1.38684,2.18859 z"
     style="fill:#008000;fill-rule:evenodd;stroke:#1b1918;stroke-width:0.5669;stroke-linecap:butt;stroke-linejoin:miter;stroke-dasharray:none"
     id="path589" />
  <path
     d="m 489.66071,557.01433 0.69343,-1.0943 -4.04599,-2.5638 -0.69342,1.09429 z"
     style="fill:#9b9d9f;fill-rule:evenodd;stroke:#1b1918;stroke-width:0.5669;stroke-linecap:butt;stroke-linejoin:miter;stroke-dasharray:none"
     id="path591" />
  <g
     id="g1522"
     transform="rotate(53.394497,526.78043,569.23773)">
    <path
       d="m 510.44859,536.34805 c 34.96389,18.71732 -7.44143,71.56943 -23.94763,71.56943"
       style="fill:none;fill-rule:evenodd;stroke:#ff6600;stroke-width:1.5001;stroke-linecap:butt;stroke-linejoin:miter;stroke-dasharray:none"
       id="path583"
       sodipodi:nodetypes="cc" />
    <path
       d="m 486.50096,609.21298 v -2.591 h -4.7501 v 2.591 z"
       style="fill:#ff6600;fill-rule:evenodd;stroke:#1b1918;stroke-width:0.5669;stroke-linecap:butt;stroke-linejoin:miter;stroke-dasharray:none"
       id="path585" />
    <path
       d="m 481.75086,608.56528 v -1.2955 h -4.7898 v 1.2955 z"
       style="fill:#9b9d9f;fill-rule:evenodd;stroke:#1b1918;stroke-width:0.5669;stroke-linecap:butt;stroke-linejoin:miter;stroke-dasharray:none"
       id="path587" />
  </g>
  <g
     id="g1552"
     transform="matrix(1,0,0,-1,-9.43305,1059.0218)">
    <path
       d="m 548.8773,522.5068 v 26.2159 h 26.216 v -26.2159 z"
       style="fill:none;stroke:#1b1918;stroke-width:1.0001;stroke-linecap:butt;stroke-linejoin:miter;stroke-dasharray:none"
       id="path594" />
    <path
       d="m 555.0492,515.0832 v 36.9011 h 13.8725 v -36.9011 z"
       style="fill:#1b1918;fill-rule:evenodd;stroke:#1b1918;stroke-width:0.5669;stroke-linecap:butt;stroke-linejoin:miter;stroke-dasharray:none"
       id="path596" />
    <path
       d="M 597.222,541.6444 H 526.7485"
       style="fill:none;stroke:#1b1918;stroke-width:2.9999;stroke-linecap:butt;stroke-linejoin:miter;stroke-dasharray:none"
       id="path598" />
    <path
       d="m 543.6739,520.5068 v 2.9812 h 36.6226 v -2.9812 z"
       style="fill:#1b1918;fill-rule:evenodd;stroke:#1b1918;stroke-width:0.5669;stroke-linecap:butt;stroke-linejoin:miter;stroke-dasharray:none"
       id="path600" />
  </g>
  <text
     xml:space="preserve"
     style="font-size:16px;line-height:1.05;font-family:Arial;-inkscape-font-specification:Arial;fill:#008000;stroke:none;stroke-width:1.13386;stroke-dasharray:none"
     x="281.78659"
     y="548.54504"
     id="text18230"><tspan
       sodipodi:role="line"
       id="tspan18228"
       x="281.78659"
       y="548.54504"
       style="font-style:normal;font-variant:normal;font-weight:bold;font-stretch:normal;font-size:16px;font-family:Arial;-inkscape-font-specification:'Arial Bold';fill:#000000">Angle</tspan></text>
  <text
     xml:space="preserve"
     style="font-size:16px;line-height:1.05;font-family:Arial;-inkscape-font-specification:Arial;fill:#008000;stroke:none;stroke-width:1.13386;stroke-dasharray:none"
     x="544.46912"
     y="258.78885"
     id="text18230-7"><tspan
       sodipodi:role="line"
       id="tspan18228-4"
       x="544.46912"
       y="258.78885"
       style="font-style:normal;font-variant:normal;font-weight:bold;font-stretch:normal;font-size:16px;font-family:Arial;-inkscape-font-specification:'Arial Bold';fill:#000000">Distance</tspan></text>
</svg>
